<?xml version="1.0" encoding="UTF-8" standalone="no"?><!DOCTYPE svg PUBLIC "-//W3C//DTD SVG 1.1//EN" "http://www.w3.org/Graphics/SVG/1.1/DTD/svg11.dtd"><svg width="100%" height="100%" viewBox="0 0 300 300" version="1.1" xmlns="http://www.w3.org/2000/svg" xmlns:xlink="http://www.w3.org/1999/xlink" xml:space="preserve" xmlns:serif="http://www.serif.com/" style="fill-rule:evenodd;clip-rule:evenodd;stroke-linejoin:round;stroke-miterlimit:2;"><circle cx="150" cy="150" r="150" style="fill:#fff;"/><path d="M46.197,133.019l32.149,-0c3.179,-25.946 13.416,-50.026 27.705,-72.35l-29.312,-0c-15.132,21.863 -26.877,46.166 -30.542,72.35Z" style="fill-rule:nonzero;"/><path d="M253.795,166.985l-32.173,0c-3.24,25.813 -13.572,50.224 -27.673,72.346l29.312,0c15.121,-21.683 26.86,-46.208 30.534,-72.346Z" style="fill-rule:nonzero;"/><path d="M45,150l59.655,-0c24.651,-0 44.673,-20.014 44.683,-44.666c0.009,-24.651 20.031,-44.665 44.682,-44.665l29.31,-0c19.731,25.722 31.683,56.629 31.67,89.331l-61.014,0c-24.651,0 -44.673,20.014 -44.683,44.666c-0.009,24.651 -20.031,44.665 -44.683,44.665l-28.349,0c-19.531,-26.321 -31.284,-56.231 -31.271,-89.331Z" style="fill:#390068;"/><clipPath id="_clip1"><path d="M45,150l59.655,-0c24.651,-0 44.673,-20.014 44.683,-44.666c0.009,-24.651 20.031,-44.665 44.682,-44.665l29.31,-0c19.731,25.722 31.683,56.629 31.67,89.331l-61.014,0c-24.651,0 -44.673,20.014 -44.683,44.666c-0.009,24.651 -20.031,44.665 -44.683,44.665l-28.349,0c-19.531,-26.321 -31.284,-56.231 -31.271,-89.331Z"/></clipPath><g clip-path="url(#_clip1)"><path d="M259.073,54.213l-109.716,-0l-0.059,154.189l109.715,-0l0.06,-154.189Z" style="fill:#ffcd00;"/><path d="M204.993,108.875c0.006,-15.359 -12.459,-27.829 -27.818,-27.829c-15.359,-0 -27.833,12.47 -27.839,27.829l-0.032,84.057c-0.006,15.359 12.459,27.828 27.818,27.828c15.359,0 27.833,-12.469 27.839,-27.828l0.032,-84.057Z" style="fill:#ffac00;"/><path d="M149.344,107.739c0.006,-15.359 -12.459,-27.828 -27.818,-27.828c-15.359,-0 -27.833,12.469 -27.839,27.828l-0.033,83.386c-0.005,15.359 12.459,27.828 27.818,27.828c15.359,0 27.834,-12.469 27.839,-27.828l0.033,-83.386Z" style="fill:#6300af;"/></g></svg>